<svg xmlns="http://www.w3.org/2000/svg" viewBox="0 0 512 512" width="512" height="512">
  <!-- Dark background, no border -->
  <rect width="512" height="512" rx="96" fill="#1a1a1a"/>

  <g transform="translate(256, 250) scale(0.85) translate(-256, -250)">
    <!-- Base plate bottom -->
    <path d="M178,440 Q178,448 186,448 L326,448 Q334,448 334,440 L334,428 Q334,420 326,420 L186,420 Q178,420 178,428 Z" fill="#c5a880"/>

    <!-- Base plate top (trapezoid) -->
    <path d="M192,420 L320,420 Q326,420 324,414 L312,386 Q310,380 302,380 L210,380 Q202,380 200,386 L188,414 Q186,420 192,420 Z" fill="#c5a880"/>

    <!-- Narrow stem connecting base to body -->
    <path d="M236,380 L236,350 Q236,344 242,344 L270,344 Q276,344 276,350 L276,380" fill="#c5a880"/>

    <!-- Left arm/figure sweeping up -->
    <path d="M236,355
             C234,330 226,300 210,275
             C198,256 186,244 180,224
             C174,204 172,182 180,164
             C188,146 202,140 214,148
             C226,156 234,176 240,200
             L240,200
             C242,210 246,220 250,228
             L250,228" fill="#c5a880"/>

    <!-- Right arm/figure sweeping up -->
    <path d="M276,355
             C278,330 286,300 302,275
             C314,256 326,244 332,224
             C338,204 340,182 332,164
             C324,146 310,140 298,148
             C286,156 278,176 272,200
             L272,200
             C270,210 266,220 262,228
             L262,228" fill="#c5a880"/>

    <!-- Central body connecting arms -->
    <path d="M250,228 C252,220 254,210 256,200 C258,210 260,220 262,228
             L276,355 L236,355 Z" fill="#c5a880"/>

    <!-- Globe (soccer ball) at top -->
    <circle cx="256" cy="148" r="62" fill="#c5a880"/>

    <!-- Soccer ball pattern - vertical seams -->
    <path d="M256,86 C244,108 238,128 238,148 C238,168 244,188 256,210" fill="none" stroke="#1a1a1a" stroke-width="2.5" stroke-linecap="round"/>
    <path d="M256,86 C268,108 274,128 274,148 C274,168 268,188 256,210" fill="none" stroke="#1a1a1a" stroke-width="2.5" stroke-linecap="round"/>

    <!-- Soccer ball pattern - horizontal seams -->
    <path d="M194,148 L318,148" fill="none" stroke="#1a1a1a" stroke-width="2.5" stroke-linecap="round"/>
    <path d="M198,124 L314,124" fill="none" stroke="#1a1a1a" stroke-width="2" stroke-linecap="round"/>
    <path d="M198,172 L314,172" fill="none" stroke="#1a1a1a" stroke-width="2" stroke-linecap="round"/>

    <!-- Soccer ball pattern - pentagons -->
    <polygon points="256,130 248,138 251,148 261,148 264,138" fill="none" stroke="#1a1a1a" stroke-width="2"/>
    <polygon points="222,108 216,116 219,124 227,124 230,116" fill="none" stroke="#1a1a1a" stroke-width="1.5"/>
    <polygon points="290,108 284,116 287,124 295,124 298,116" fill="none" stroke="#1a1a1a" stroke-width="1.5"/>
    <polygon points="218,160 212,168 215,176 223,176 226,168" fill="none" stroke="#1a1a1a" stroke-width="1.5"/>
    <polygon points="294,160 288,168 291,176 299,176 302,168" fill="none" stroke="#1a1a1a" stroke-width="1.5"/>

    <!-- Flowing detail lines on arms -->
    <path d="M230,340 C228,310 220,280 208,260 C200,248 192,238 188,224" fill="none" stroke="#1a1a1a" stroke-width="2" stroke-linecap="round"/>
    <path d="M282,340 C284,310 292,280 304,260 C312,248 320,238 324,224" fill="none" stroke="#1a1a1a" stroke-width="2" stroke-linecap="round"/>

    <!-- Base detail lines -->
    <line x1="186" y1="434" x2="326" y2="434" stroke="#1a1a1a" stroke-width="2"/>
    <line x1="200" y1="400" x2="312" y2="400" stroke="#1a1a1a" stroke-width="1.5"/>
  </g>
</svg>
