<svg xmlns="http://www.w3.org/2000/svg" viewBox="0 0 512 512" width="32" height="32">
  <rect width="512" height="512" rx="96" fill="#1a1a1a"/>
  <g transform="translate(256, 250) scale(0.85) translate(-256, -250)">
    <path d="M178,440 Q178,448 186,448 L326,448 Q334,448 334,440 L334,428 Q334,420 326,420 L186,420 Q178,420 178,428 Z" fill="#c5a880"/>
    <path d="M192,420 L320,420 Q326,420 324,414 L312,386 Q310,380 302,380 L210,380 Q202,380 200,386 L188,414 Q186,420 192,420 Z" fill="#c5a880"/>
    <path d="M236,380 L236,350 Q236,344 242,344 L270,344 Q276,344 276,350 L276,380" fill="#c5a880"/>
    <path d="M236,355 C234,330 226,300 210,275 C198,256 186,244 180,224 C174,204 172,182 180,164 C188,146 202,140 214,148 C226,156 234,176 240,200 C242,210 246,220 250,228" fill="#c5a880"/>
    <path d="M276,355 C278,330 286,300 302,275 C314,256 326,244 332,224 C338,204 340,182 332,164 C324,146 310,140 298,148 C286,156 278,176 272,200 C270,210 266,220 262,228" fill="#c5a880"/>
    <path d="M250,228 C252,220 254,210 256,200 C258,210 260,220 262,228 L276,355 L236,355 Z" fill="#c5a880"/>
    <circle cx="256" cy="148" r="62" fill="#c5a880"/>
  </g>
</svg>
