<svg xmlns="http://www.w3.org/2000/svg" viewBox="0 0 512 512" width="32" height="32">
  <rect width="512" height="512" rx="96" fill="#1a1a1a"/>
  <g>
    <path d="M186,430 L326,430 C332,430 336,426 336,420 L336,408 C336,402 332,398 326,398 L186,398 C180,398 176,402 176,408 L176,420 C176,426 180,430 186,430 Z" fill="#c5a880"/>
    <path d="M196,398 L316,398 C322,398 326,394 326,388 L316,362 C314,356 308,352 300,352 L212,352 C204,352 198,356 196,362 L186,388 C186,394 190,398 196,398 Z" fill="#c5a880"/>
    <rect x="240" y="320" width="32" height="32" rx="4" fill="#c5a880"/>
    <path d="M240,320 C242,300 236,270 218,245 C205,228 192,218 185,200 C178,182 180,162 192,148 C204,134 220,138 230,152 C240,166 248,190 252,210 L260,210 C264,190 272,166 282,152 C292,138 308,134 320,148 C332,162 334,182 327,200 C320,218 307,228 294,245 C276,270 270,300 272,320 Z" fill="#c5a880"/>
    <circle cx="256" cy="138" r="56" fill="#c5a880"/>
  </g>
</svg>
